<?xml version="1.0" encoding="utf-8"?>
<!-- Generator: Adobe Illustrator 19.0.0, SVG Export Plug-In . SVG Version: 6.00 Build 0)  -->
<svg version="1.1" id="Layer_1" xmlns="http://www.w3.org/2000/svg" xmlns:xlink="http://www.w3.org/1999/xlink" x="0px" y="0px"
	 viewBox="602.9 351.1 118.8 139.8" style="enable-background:new 602.9 351.1 118.8 139.8;" xml:space="preserve">
<style type="text/css">
	.st0{fill:#FF5F78;}
	.st1{opacity:0.1;enable-background:new    ;}
	.st2{fill:#AB6A55;}
	.st3{fill:#0B1B5B;}
</style>
<path class="st0" d="M618.8,392.9c-13.4-9.9-12.8-26.7-8.4-38.3c0.8-2,3.6-2.2,4.5-0.2c5.3,10.8,14.2,18.3,26.6,21.8L618.8,392.9z"
	/>
<path class="st1" d="M618.8,392.9c-13.4-9.9-12.8-26.7-8.4-38.3c0.8-2,3.6-2.2,4.5-0.2c5.3,10.8,14.2,18.3,26.6,21.8L618.8,392.9z"
	/>
<path class="st1" d="M612.4,353.1c-0.8,0.1-1.6,0.6-1.9,1.6c-4.3,11.6-5,28.4,8.4,38.3l7.2-5.3C615.3,380.7,612.1,361.1,612.4,353.1
	z"/>
<path class="st0" d="M706,392.9c13.4-9.9,12.8-26.7,8.4-38.3c-0.8-2-3.6-2.2-4.5-0.2c-5.3,10.8-14.2,18.3-26.6,21.8L706,392.9z"/>
<path class="st1" d="M706,392.9c13.4-9.9,12.8-26.7,8.4-38.3c-0.8-2-3.6-2.2-4.5-0.2c-5.3,10.8-14.2,18.3-26.6,21.8L706,392.9z"/>
<g>
	<path class="st0" d="M714.8,441.6c-0.3,0-0.5,0-0.8-0.1c-2.2-0.5-3.6-2.6-3.2-4.8c0.7-3.3,1-6.6,1-10c0-27.2-22.2-49.4-49.4-49.4
		S613,399.5,613,426.7c0,3.4,0.3,6.7,1,10c0.5,2.2-1,4.4-3.2,4.8c-2.2,0.5-4.4-1-4.8-3.2c-0.8-3.8-1.2-7.7-1.2-11.6
		c0-31.7,25.8-57.6,57.6-57.6s57.6,25.8,57.6,57.6c0,3.9-0.4,7.8-1.2,11.6C718.4,440.3,716.7,441.6,714.8,441.6z"/>
	<path class="st0" d="M702,427.5c-1.6-1.6-4.2-1.6-5.8,0l-11.6,11.6c-2,2-4.6,3.1-7.5,3.1c-2.8,0-5.5-1.1-7.5-3.1l-0.9-0.9
		l19.1-19.1c1.6-1.6,1.6-4.2,0-5.8c-1.6-1.6-4.2-1.6-5.8,0l-19,19.2l-0.9-0.9c-2-2-3.1-4.6-3.1-7.5c0-2.8,1.1-5.5,3.1-7.5l11.6-11.6
		c1.6-1.6,1.6-4.2,0-5.8c-1.6-1.6-4.2-1.6-5.8,0l-11.5,11.7c-3.5,3.5-5.5,8.2-5.5,13.2s1.9,9.7,5.5,13.2l0.9,0.9l-31.5,31.5
		c-1.6,1.6-1.6,4.2,0,5.8c0.8,0.8,1.8,1.2,2.9,1.2c1,0,2.1-0.4,2.9-1.2l31.5-31.5l0.9,0.9c3.5,3.5,8.2,5.5,13.2,5.5
		s9.7-1.9,13.2-5.5l11.6-11.6C703.6,431.7,703.6,429.1,702,427.5z"/>
</g>
<path class="st2" d="M619.3,488.8c-1.7,0-3.5-0.7-4.8-2c-2.7-2.7-2.7-7,0-9.6l11.5-11.5c2.7-2.7,7-2.7,9.6,0c2.7,2.7,2.7,7,0,9.6
	l-11.5,11.5C622.8,488.1,621.1,488.8,619.3,488.8z"/>
<path class="st1" d="M620.8,470.9l-6.3,6.3c-2.7,2.7-2.7,7,0,9.6c1.3,1.3,3.1,2,4.8,2c1.7,0,3.5-0.7,4.8-2l1.2-1.2
	C621.2,484.4,619.5,476.9,620.8,470.9z"/>
<path class="st3" d="M710.6,391.6c5.4-5.3,8.4-12.5,8.7-20.8c0-1.1-0.8-2.1-2-2.1c-1.1,0-2.1,0.8-2.1,2c-0.2,5-1.6,12-7.1,17.7
	c-4.5-5.3-9.9-9.8-15.9-13.3c8.7-4.3,15.3-10.9,19.6-19.8c0.1-0.2,0.2-0.2,0.4-0.2c0.3,0,0.4,0.2,0.4,0.3c0.5,1.3,0.9,2.7,1.3,4.1
	c0.3,1.1,1.4,1.7,2.5,1.5c1.1-0.3,1.7-1.4,1.5-2.5c-0.4-1.5-0.9-3-1.4-4.5c-0.6-1.7-2.2-2.8-4-2.9c-1.8-0.1-3.5,0.9-4.3,2.5
	c-4.4,9-11.3,15.4-20.6,19.1c-7.6-3.5-16.1-5.5-25.1-5.5s-17.4,2-25.1,5.5c-9.3-3.7-16.2-10.2-20.6-19.1c-0.8-1.6-2.4-2.6-4.3-2.5
	c-1.8,0.1-3.4,1.2-4,2.9c-4.3,11.5-4.9,27.2,5.8,37.8c-7.2,9.8-11.4,22-11.4,35.1c0,4,0.4,8.1,1.2,12c0.3,1.6,1.3,3,2.6,3.9
	c1,0.7,2.2,1,3.4,1c0.4,0,0.8,0,1.2-0.1c1.6-0.3,3-1.3,3.9-2.6c0.9-1.4,1.2-3,0.9-4.6c-0.6-3.1-1-6.3-1-9.5
	c0-26.1,21.2-47.3,47.3-47.3s47.3,21.2,47.3,47.3c0,3.2-0.3,6.4-1,9.5c-0.3,1.6,0,3.2,0.9,4.6s2.3,2.3,3.9,2.6
	c0.4,0.1,0.8,0.1,1.2,0.1c2.9,0,5.4-2.1,6-4.9c0.8-3.9,1.2-8,1.2-12C722,413.6,717.7,401.5,710.6,391.6z M612.3,355.3
	c0-0.1,0.1-0.3,0.4-0.3c0.2,0,0.3,0.1,0.4,0.2c4.3,8.9,10.9,15.5,19.6,19.8c-6.1,3.5-11.4,8-15.9,13.3
	C607.9,379.2,608.5,365.5,612.3,355.3z M716.8,437.9c-0.2,1.1-1.3,1.8-2.4,1.6c-0.5-0.1-1-0.4-1.3-0.9c-0.3-0.5-0.4-1-0.3-1.5
	c0.7-3.4,1-6.9,1-10.4c0-28.4-23.1-51.4-51.4-51.4S611,398.4,611,426.7c0,3.5,0.4,7,1,10.4c0.1,0.5,0,1.1-0.3,1.5
	c-0.3,0.5-0.8,0.8-1.3,0.9s-1.1,0-1.5-0.3c-0.5-0.3-0.8-0.8-0.9-1.3c-0.7-3.7-1.1-7.4-1.1-11.2c0-30.6,24.9-55.5,55.5-55.5
	c8.6,0,16.8,2,24.1,5.5l0,0c18.6,9,31.4,28,31.4,50C717.9,430.5,717.5,434.3,716.8,437.9z M694.8,426.1l-11.6,11.6
	c-1.6,1.6-3.7,2.5-6,2.5c-2,0-3.9-0.7-5.4-2l17.6-17.6c1.2-1.2,1.8-2.7,1.8-4.3c0-1.6-0.6-3.2-1.8-4.3c-1.2-1.2-2.7-1.8-4.3-1.8
	s-3.2,0.6-4.3,1.8l-17.6,17.6c-1.3-1.5-2-3.4-2-5.4c0-2.3,0.9-4.4,2.5-6l11.6-11.6c1.2-1.2,1.8-2.7,1.8-4.3c0-1.6-0.6-3.2-1.8-4.3
	c-2.4-2.4-6.3-2.4-8.7,0L655,409.6c-3.9,3.9-6.1,9.1-6.1,14.7c0,5.3,2,10.3,5.5,14.1L631,461.6c-2.3,0-4.7,0.8-6.4,2.6l-4.9,4.9
	c-0.8,0.8-0.8,2.1,0,2.9c0.8,0.8,2.1,0.8,2.9,0l4.9-4.9c1.9-1.9,4.9-1.9,6.7,0c0.9,0.9,1.4,2.1,1.4,3.4s-0.5,2.5-1.4,3.4l-11.5,11.5
	c-0.9,0.9-2.1,1.4-3.4,1.4s-2.5-0.5-3.4-1.4c-1.6-1.6-1.9-4.2-0.5-6.1c0.7-0.9,0.4-2.2-0.5-2.9c-0.9-0.7-2.2-0.4-2.9,0.5
	c-2.5,3.5-2.1,8.3,1,11.4c1.7,1.7,3.9,2.6,6.3,2.6s4.6-0.9,6.3-2.6l11.5-11.5c1.7-1.7,2.6-3.9,2.6-6.3c0-0.1,0-0.1,0-0.2l23.3-23.4
	c3.9,3.6,8.8,5.5,14.1,5.5c5.6,0,10.8-2.2,14.7-6.1l11.6-11.6c1.2-1.2,1.8-2.7,1.8-4.3c0-1.6-0.6-3.2-1.8-4.3
	C701.1,423.7,697.2,423.7,694.8,426.1z M700.6,431.9L689,443.5c-3.2,3.2-7.3,4.9-11.8,4.9s-8.6-1.7-11.8-4.9l-0.9-0.9
	c-0.8-0.8-2.1-0.8-2.9,0l-23.2,23.2c-0.4-0.6-0.8-1.1-1.3-1.6s-1-0.9-1.6-1.3l23.2-23.2c0.4-0.4,0.6-0.9,0.6-1.4s-0.2-1.1-0.6-1.4
	l-0.9-0.9c-3.2-3.2-4.9-7.3-4.9-11.8s1.7-8.6,4.9-11.8l11.6-11.6c0.8-0.8,2.1-0.8,2.9,0c0.4,0.4,0.6,0.9,0.6,1.4s-0.2,1.1-0.6,1.4
	l-11.6,11.6c-2.4,2.4-3.7,5.5-3.7,8.9s1.3,6.5,3.7,8.9l0.9,0.9c0.4,0.4,0.9,0.6,1.4,0.6l0,0c0.5,0,1.1-0.2,1.4-0.6l19.1-19.1
	c0.4-0.4,0.9-0.6,1.4-0.6s1.1,0.2,1.4,0.6c0.4,0.4,0.6,0.9,0.6,1.4s-0.2,1.1-0.6,1.4l-19.1,19.1c-0.4,0.4-0.6,0.9-0.6,1.4
	s0.2,1.1,0.6,1.4l0.9,0.9c2.4,2.4,5.5,3.7,8.9,3.7c3.4,0,6.5-1.3,8.9-3.7l11.6-11.6c0.8-0.8,2.1-0.8,2.9,0c0.4,0.4,0.6,0.9,0.6,1.4
	C701.2,431,700.9,431.5,700.6,431.9z"/>
</svg>
