<?xml version="1.0" encoding="utf-8"?>
<!-- Generator: Adobe Illustrator 19.0.0, SVG Export Plug-In . SVG Version: 6.00 Build 0)  -->
<svg version="1.1" id="Layer_1" xmlns="http://www.w3.org/2000/svg" xmlns:xlink="http://www.w3.org/1999/xlink" x="0px" y="0px"
	 viewBox="589 352.9 146.7 135" style="enable-background:new 589 352.9 146.7 135;" xml:space="preserve">
<style type="text/css">
	.st0{fill:#FF7052;}
	.st1{fill:#E65147;}
	.st2{fill:#8BE4FC;}
	.st3{opacity:0.15;enable-background:new    ;}
	.st4{fill:#FFEB95;}
	.st5{fill:#0B1B5B;}
</style>
<g>
	<path class="st0" d="M733.4,457c0-15.9-31.9-28.7-71.2-28.7c-39.3,0-71.2,12.9-71.2,28.7c0,15.9,31.9,28.7,71.2,28.7
		C701.5,485.7,733.4,472.9,733.4,457z"/>
	<path class="st1" d="M662.3,428.3c-39.3,0-71.2,12.9-71.2,28.7c0,15.5,30.4,28.1,68.4,28.7c27.7-9.8,33.7-28.7,33.7-28.7v-25.9
		C683.8,429.3,673.4,428.3,662.3,428.3z"/>
	<path class="st0" d="M627.5,453.4c-2.6-2.3-4.1-5.5-4.3-8.9c-0.4-10.9,0.4-37.8,16.5-57.1c12.9-15.5,31.4-26,43.4-31.7
		c4.8-2.3,10.1,1.9,9,7.1c-2.5,12.7-5,32.8,0.4,47.8c5.2,14.3,7.6,25.5,8.7,32.1c0.8,4.6-1,9.2-4.7,12c-6.1,4.7-17.2,10.9-33.9,10.9
		C644.4,465.5,633,458.1,627.5,453.4z"/>
	<path class="st1" d="M652.1,375.2c-4.4,3.7-8.6,7.7-12.4,12.2c-16.1,19.2-16.9,46.1-16.5,57.1c0.1,3.4,1.7,6.7,4.3,8.9
		c5.5,4.8,16.9,12.1,35.2,12.1c5.9,0,11-0.8,15.6-2c-7-10.3-18.4-28.1-25-43.1C646.6,405.3,649.4,386.2,652.1,375.2z"/>
	<path class="st2" d="M623.6,430.6c-0.5,5.7-0.5,10.5-0.4,13.9c0.1,3.4,1.7,6.7,4.3,8.9c5.5,4.8,16.9,12.1,35.2,12.1
		c16.7,0,27.8-6.2,33.9-10.9c3.7-2.8,5.5-7.4,4.7-12c-0.4-2.6-1.1-5.9-2-9.9c-4.9,4.6-16.9,13.5-37,13.5
		C638,446.2,625.8,433.2,623.6,430.6z"/>
	<path class="st3" d="M662.3,446.2c-24.3,0-36.5-13-38.7-15.7c-0.5,5.7-0.5,10.5-0.4,13.9s1.7,6.7,4.3,8.9
		c5.5,4.8,16.9,12.1,35.2,12.1c5.9,0,11-0.8,15.6-2c-3.1-4.6-7.1-10.8-11.2-17.5C665.5,446.2,663.9,446.2,662.3,446.2z"/>
	<path class="st4" d="M666.9,448.1v12.1h-12.1v-12.1H666.9z M668.9,439.5h-16.1c-3.6,0-6.6,2.9-6.6,6.6v16.1c0,3.6,2.9,6.6,6.6,6.6
		h16.1c3.6,0,6.6-2.9,6.6-6.6v-16.1C675.5,442.5,672.6,439.5,668.9,439.5z"/>
	<path class="st5" d="M666.9,446h-12.1c-1.2,0-2.1,1-2.1,2.1v12.1c0,1.2,1,2.1,2.1,2.1h12.1c1.2,0,2.1-1,2.1-2.1v-12.1
		C669.1,446.9,668.1,446,666.9,446z M664.8,458.1H657v-7.8h7.8V458.1z"/>
	<path class="st5" d="M701,430.7c-1.4-5.9-3.5-12.9-6.4-20.9c-5.4-15-2.5-35.7-0.3-46.7c0.6-3.2-0.6-6.4-3.1-8.4c-2.6-2-6-2.4-8.9-1
		c-12.3,5.8-29.6,15.8-42.5,30.4c-0.8,0.9-0.7,2.2,0.2,3c0.9,0.8,2.2,0.7,3-0.2c12.4-14,29.2-23.7,41.1-29.3
		c1.5-0.7,3.2-0.5,4.5,0.5s1.9,2.6,1.6,4.2c-5.1,25.3-2.5,40.6,0.5,49c5.1,14,7.5,25,8.6,31.7c0.6,3.8-0.9,7.6-3.9,9.9
		c-3.6,2.8-9.5,6.4-17.6,8.5v-14.9c5.5-1.4,10.6-3.5,15.3-6.3c1-0.6,1.3-1.9,0.7-3c-0.6-1-1.9-1.3-3-0.7c-4.2,2.6-8.9,4.5-13.9,5.8
		c-1.4-2.9-4.4-4.9-7.9-4.9h-16.1c-3.2,0-5.9,1.7-7.5,4.2c-11-3.4-17.4-9.5-19.5-11.8c1.1-10.8,4.1-24.5,11.9-36.2
		c0.7-1,0.4-2.3-0.6-3c-1-0.7-2.3-0.4-3,0.6c-8.8,13.1-11.8,28.5-12.8,40.1c-9.3,2.6-17.1,6.1-22.6,10.1c-6.4,4.7-9.8,10.1-9.8,15.6
		c0,8.6,7.9,16.5,22.2,22.3c13.7,5.5,31.8,8.6,51.1,8.6c21.8,0,42.3-4,56.2-10.8c1.1-0.5,1.5-1.8,1-2.9s-1.8-1.5-2.9-1
		c-13.3,6.6-33.1,10.4-54.3,10.4c-18.7,0-36.3-2.9-49.5-8.3c-12.4-5-19.5-11.7-19.5-18.3c0-8.1,10.6-16.1,27.8-21.2
		c-0.1,3.5-0.1,6.5,0,8.7c0.2,4,2,7.8,5,10.5c3.6,3.1,9.7,7.4,18.5,10c1.2,3.4,4.4,5.9,8.3,5.9H669c3.4,0,6.4-2,7.8-4.8
		c9.9-2.2,17-6.5,21.2-9.8c4.3-3.3,6.4-8.7,5.5-14c-0.3-1.9-0.8-4.2-1.3-6.8c18.1,5,29.2,13.2,29.2,21.6c0,5.1-4.2,9.3-7.7,11.9
		c-1,0.7-1.1,2.1-0.4,3c1,1.3,2.6,0.7,3,0.4c6.1-4.6,9.4-9.9,9.4-15.4C735.6,446.1,722.7,436.3,701,430.7z M625.4,444.4
		c-0.1-2.2-0.1-5.3,0-8.9c3.6,3.2,9.8,7.5,18.7,10.3c0,0.1,0,14.6,0,14.6c-7.1-2.5-12.2-6-15.2-8.6
		C626.8,449.9,625.5,447.2,625.4,444.4z M673.3,462.2c0,2.4-2,4.4-4.4,4.4h-16.1c-2.4,0-4.4-2-4.4-4.4v-16.1c0-2.4,2-4.4,4.4-4.4
		h16.1c2.4,0,4.4,2,4.4,4.4V462.2z"/>
</g>
</svg>
