<?xml version="1.0" encoding="utf-8"?>
<!-- Generator: Adobe Illustrator 19.0.0, SVG Export Plug-In . SVG Version: 6.00 Build 0)  -->
<svg version="1.1" id="Layer_1" xmlns="http://www.w3.org/2000/svg" xmlns:xlink="http://www.w3.org/1999/xlink" x="0px"
     y="0px"
     viewBox="0 0 960 560" style="enable-background:new 0 0 960 560;" xml:space="preserve">
<style type="text/css">
	.st0{fill:none;stroke:#FFF;stroke-width:4;stroke-linecap:round;stroke-linejoin:round;stroke-miterlimit:10;}
</style>
    <line class="st0" x1="416.9" y1="318.1" x2="416.9" y2="186.9"/>
    <path class="st0" d="M574.5,287.2v83.3c0,43.5-35.3,78.8-78.8,78.8h0c-43.5,0-78.8-35.3-78.8-78.8v-45.6"/>
    <line class="st0" x1="456" y1="363.5" x2="574.5" y2="363.5"/>
    <line class="st0" x1="468.5" y1="350.7" x2="468.5" y2="318.1"/>
    <polyline class="st0" points="447.7,293.1 442.2,293.1 410.1,324.3 462.3,324.3 493.5,293.1 526.8,326.4 520.7,326.4 520.7,363.5
	"/>
    <line class="st0" x1="493.5" y1="293.1" x2="454.1" y2="293.1"/>
    <line class="st0" x1="520.7" y1="321.1" x2="520.7" y2="326.4"/>
    <polyline class="st0" points="429.1,363.5 416.9,363.5 416.9,324.9 "/>
    <polyline class="st0" points="439.2,342.6 425.5,342.6 425.5,333 441.6,333 "/>
    <polyline class="st0" points="442.1,333 457.9,333 457.9,342.6 448.1,342.6 "/>
    <polyline class="st0" points="486.2,344.2 486.2,335.2 503.3,335.2 503.3,363.5 "/>
    <path class="st0" d="M457.9,361.3L457.9,361.3c0-5.2,4.2-9.4,9.4-9.4h2.2v0c0-4.8,6.1-8.7,10.9-8.7l0,0c4.8,0,10.7,3.9,10.7,8.7v1.3
	h1.8c5.5,0,10,4.5,10,10l0-0.7"/>
    <line class="st0" x1="425.5" y1="405.6" x2="475.5" y2="405.6"/>
    <line class="st0" x1="547.4" y1="376.6" x2="573" y2="376.6"/>
    <line class="st0" x1="507.6" y1="422.9" x2="553.2" y2="422.9"/>
    <g>
	<path class="st0" d="M446,340.8c-1.2-1.9-4-2.1-5.4-0.2l-8.7,16.8c-5.8,7.8,0.3,18.3,10.6,18.3h0c9.8,0,16-9.7,11.1-17.5L446,340.8
		z"/>
        <line class="st0" x1="442.6" y1="375.6" x2="442.6" y2="390.9"/>
</g>
    <path class="st0" d="M443.2,403.5L443.2,403.5c0-3.3,2.7-6,6-6h1.4l0,0c0-3.1,3.9-5.6,7-5.6l0,0c3.1,0,6.9,2.5,6.9,5.6v0.8h1.2
	c3.5,0,6.4,2,6.4,5.5l0,0"/>
    <g>
	<path class="st0" d="M542.7,368.1c-0.7-1.1-2.2-1.1-2.9-0.1L535,376c-3.1,4.2,0.2,10,5.8,10l0,0c5.4,0,8.7-5.3,6.1-9.5L542.7,368.1
		z"/>
        <line class="st0" x1="540.8" y1="386" x2="540.8" y2="394.3"/>
</g>
    <g>
	<path class="st0" d="M502,394.1c-1.2-1.9-3.9-2-5.2-0.2l-8.4,14.3c-5.6,7.5,0.3,17.7,10.2,17.7h0c9.5,0,15.4-9.3,10.8-16.9
		L502,394.1z"/>
        <line class="st0" x1="498.6" y1="425.8" x2="498.6" y2="440.6"/>
</g>
    <line class="st0" x1="480.3" y1="422.9" x2="488.7" y2="422.9"/>
    <line class="st0" x1="507.9" y1="376.6" x2="533.4" y2="376.6"/>
    <path class="st0" d="M416.9,188.1c0-43.5,35.3-78.8,78.8-78.8h0c43.5,0,78.8,35.3,78.8,78.8l-0.1,77.8"/>
    <path class="st0" d="M429.8,144.6c9.4-6.3,20.7-10,32.9-10c12.9,0,24.8,4.1,34.5,11.2"/>
    <path class="st0" d="M509.2,157.3c7.7,10,12.3,22.5,12.3,36c0,32.5-26.3,58.8-58.8,58.8c-18.9,0-35-8.1-45.8-21.9"/>
    <path class="st0" d="M503.3,163.9l0-0.1c-1.6-6.4-6.6-11.4-13-13l0,0l0,0c6.4-1.6,11.4-6.6,13-13l0-0.1v0c1.5,6.3,6.4,11.3,12.6,13
	l0.4,0.1l0,0c-6.1,1.7-10.9,6.4-12.8,12.4L503.3,163.9z"/>
    <path class="st0" d="M549.7,216.6L549.7,216.6c-1.1-4.4-4.5-7.7-8.8-8.8l0,0l0,0c4.3-1.1,7.7-4.4,8.8-8.7l0-0.1v0
	c1,4.2,4.3,7.6,8.5,8.7l0.3,0.1l0,0c-4.1,1.2-7.3,4.3-8.6,8.3L549.7,216.6z"/>
    <g>
	<path class="st0" d="M565.4,260.3c13.5,7.3,21.7,15.7,19.7,21c-2.7,7.1-22.4,6.1-44.1-2.1c-21.6-8.3-37-20.7-34.3-27.7
		c2-5.4,13.9-6.1,28.9-2.6"/>
        <path class="st0" d="M561.5,268.8l3.6-9.5c2.7-7-1.6-15.2-9.5-18.2l0,0c-7.9-3-16.5,0.2-19.2,7.2l-3.4,9
		C532.9,257.3,541.9,265.2,561.5,268.8z"/>
        <path class="st0" d="M558.4,284.3c-2.7,7.1-12,8.8-21.4,5.2c-9.3-3.6-15.2-11-12.5-18.1"/>
        <circle class="st0" cx="518" cy="255.3" r="1.6"/>
        <circle class="st0" cx="544" cy="271.3" r="1.6"/>
        <circle class="st0" cx="572.8" cy="276.2" r="1.6"/>
</g>
    <line class="st0" x1="537.1" y1="289.6" x2="529.9" y2="309.4"/>
    <line class="st0" x1="551.5" y1="291.4" x2="567.2" y2="326.4"/>
    <line class="st0" x1="525.4" y1="281.4" x2="496.2" y2="294.5"/>
    <path class="st0" d="M450.4,297.5L450.4,297.5c-1.3-5.1-5.3-9-10.3-10.3l0,0l0,0c5-1.3,9-5.2,10.3-10.2l0-0.1l0,0
	c1.2,5,5,8.9,9.9,10.2l0.3,0.1l0,0c-4.8,1.3-8.6,5-10.1,9.7L450.4,297.5z"/>
    <g>
	<line class="st0" x1="384.2" y1="177.2" x2="384.2" y2="186.5"/>
        <line class="st0" x1="379.5" y1="181.9" x2="388.8" y2="181.9"/>
</g>
    <line class="st0" x1="384.2" y1="211.6" x2="384.2" y2="211.6"/>
    <path class="st0" d="M386,250.2L386,250.2c-1.3-5.1-5.3-9-10.3-10.3h0h0c5-1.3,9-5.2,10.3-10.2l0-0.1l0,0c1.2,5,5,8.9,9.9,10.2
	l0.3,0.1l0,0c-4.8,1.3-8.6,5-10.1,9.7L386,250.2z"/>
</svg>
