<?xml version="1.0" encoding="utf-8"?>
<!-- Generator: Adobe Illustrator 19.0.0, SVG Export Plug-In . SVG Version: 6.00 Build 0)  -->
<svg version="1.1" id="Layer_1" xmlns="http://www.w3.org/2000/svg" xmlns:xlink="http://www.w3.org/1999/xlink" x="0px"
     y="0px"
     viewBox="0 0 374 102" style="enable-background:new 0 0 374 102;" xml:space="preserve">
<style type="text/css">
	.st0{display:none;}
	.st1{display:inline;}
	.st2{fill:#FFFFFF;}
</style>
    <g id="XMLID_2_">
	<g id="XMLID_147_" class="st2">
		<g id="XMLID_326_">
			<path id="XMLID_339_" d="M125.4,49.1h15.9v6.1H118V15.4h7.4V49.1z"/>
            <path id="XMLID_337_" d="M173.4,49.2c1.4,0,2.7-0.2,3.8-0.7c1.1-0.5,2.1-1.1,2.9-2c0.8-0.9,1.4-1.9,1.8-3.1
				c0.4-1.2,0.6-2.6,0.6-4.1V15.4h7.4v23.8c0,2.4-0.4,4.6-1.1,6.6c-0.8,2-1.9,3.7-3.3,5.2c-1.4,1.5-3.2,2.6-5.2,3.4
				s-4.3,1.2-6.9,1.2c-2.5,0-4.8-0.4-6.9-1.2s-3.8-2-5.2-3.4c-1.4-1.5-2.5-3.2-3.3-5.2c-0.8-2-1.1-4.2-1.1-6.6V15.4h7.4v23.8
				c0,1.5,0.2,2.9,0.6,4.1c0.4,1.2,1,2.3,1.8,3.1s1.7,1.5,2.8,2C170.7,49,172,49.2,173.4,49.2z"/>
            <path id="XMLID_335_" d="M213.2,15.4c0.2,0,0.4,0.1,0.6,0.2s0.3,0.2,0.5,0.4c0.2,0.2,0.3,0.4,0.6,0.6l20.9,26.6
				c-0.1-0.6-0.1-1.3-0.2-1.9c0-0.6,0-1.2,0-1.7V15.4h6.5v39.8h-3.8c-0.6,0-1.1-0.1-1.5-0.3c-0.4-0.2-0.8-0.5-1.1-1l-20.8-26.5
				c0.1,0.6,0.1,1.2,0.1,1.7c0,0.6,0,1.1,0,1.6v24.4h-6.5V15.4h3.9C212.7,15.4,212.9,15.4,213.2,15.4z"/>
            <path id="XMLID_332_" d="M296,55.2h-5.7c-0.6,0-1.2-0.2-1.6-0.5c-0.4-0.3-0.7-0.7-0.9-1.2l-3-8.1h-16.5l-3,8.1
				c-0.1,0.4-0.4,0.8-0.9,1.2s-1,0.5-1.6,0.5h-5.7l15.6-39.8h7.6L296,55.2z M270.2,40.2h12.7l-4.8-13.2c-0.2-0.6-0.5-1.3-0.7-2.1
				c-0.3-0.8-0.5-1.7-0.8-2.6c-0.3,0.9-0.5,1.8-0.8,2.6c-0.2,0.8-0.5,1.5-0.7,2.1L270.2,40.2z"/>
            <path id="XMLID_329_" d="M318.7,39.6v15.5h-7.4V15.4h12.1c2.7,0,5,0.3,7,0.8c1.9,0.6,3.5,1.3,4.8,2.4c1.2,1,2.1,2.2,2.7,3.6
				c0.6,1.4,0.9,2.9,0.9,4.6c0,1.3-0.2,2.6-0.6,3.8c-0.4,1.2-1,2.3-1.7,3.2c-0.7,1-1.7,1.8-2.8,2.6c-1.1,0.7-2.3,1.3-3.7,1.8
				c0.9,0.5,1.7,1.3,2.4,2.3l10,14.7h-6.7c-0.6,0-1.2-0.1-1.6-0.4s-0.8-0.6-1.1-1.1l-8.4-12.7c-0.3-0.5-0.7-0.8-1-1
				c-0.4-0.2-0.9-0.3-1.7-0.3H318.7z M318.7,34.3h4.6c1.4,0,2.6-0.2,3.6-0.5c1-0.3,1.9-0.8,2.6-1.4c0.7-0.6,1.2-1.3,1.5-2.2
				c0.3-0.8,0.5-1.8,0.5-2.8c0-2-0.7-3.6-2-4.6c-1.3-1.1-3.4-1.6-6.1-1.6h-4.7V34.3z"/>
            <path id="XMLID_327_" d="M366.4,55.2H359V15.4h7.4V55.2z"/>
		</g>
        <g id="XMLID_148_" class="st2">
			<path id="XMLID_323_" d="M130.4,89.9c-0.4,0-0.7-0.2-0.9-0.6l-0.3-1.4c-0.3,0.3-0.6,0.6-0.9,0.9s-0.7,0.5-1.1,0.7
				c-0.4,0.2-0.8,0.3-1.2,0.5c-0.4,0.1-0.9,0.2-1.4,0.2c-0.8,0-1.5-0.2-2.2-0.5c-0.7-0.3-1.2-0.8-1.7-1.4c-0.5-0.6-0.8-1.4-1.1-2.3
				c-0.3-0.9-0.4-2-0.4-3.1c0-1.1,0.1-2.1,0.4-3c0.3-0.9,0.7-1.7,1.2-2.4c0.5-0.7,1.2-1.2,1.9-1.6s1.6-0.6,2.5-0.6
				c0.8,0,1.5,0.1,2.1,0.4c0.6,0.3,1.1,0.6,1.5,1v-7.6h3.5v20.8H130.4z M125.8,87.4c0.7,0,1.3-0.1,1.8-0.4c0.5-0.3,1-0.7,1.4-1.3
				v-6.4c-0.4-0.5-0.8-0.8-1.3-1c-0.5-0.2-1-0.3-1.5-0.3c-0.5,0-1,0.1-1.4,0.3c-0.4,0.2-0.8,0.5-1.1,0.9s-0.5,0.9-0.7,1.5
				s-0.2,1.3-0.2,2.2c0,0.8,0.1,1.6,0.2,2.1c0.1,0.6,0.3,1.1,0.6,1.4c0.3,0.4,0.6,0.6,0.9,0.8C125,87.3,125.4,87.4,125.8,87.4z"/>
            <path id="XMLID_320_" d="M142.2,75.3c0.9,0,1.7,0.1,2.5,0.4c0.8,0.3,1.4,0.7,2,1.3s1,1.2,1.3,2s0.5,1.7,0.5,2.8
				c0,0.3,0,0.5,0,0.7s-0.1,0.3-0.1,0.4c-0.1,0.1-0.1,0.2-0.2,0.2c-0.1,0-0.2,0.1-0.4,0.1h-8.9c0.1,1.5,0.5,2.6,1.2,3.2
				c0.7,0.7,1.6,1,2.7,1c0.6,0,1-0.1,1.4-0.2c0.4-0.1,0.8-0.3,1.1-0.4c0.3-0.2,0.6-0.3,0.8-0.4c0.2-0.1,0.5-0.2,0.7-0.2
				c0.1,0,0.3,0,0.4,0.1c0.1,0.1,0.2,0.1,0.3,0.2l1,1.3c-0.4,0.4-0.8,0.8-1.3,1.1s-1,0.5-1.5,0.7c-0.5,0.2-1,0.3-1.6,0.4
				c-0.5,0.1-1.1,0.1-1.6,0.1c-1,0-1.9-0.2-2.8-0.5c-0.9-0.3-1.6-0.8-2.2-1.5s-1.1-1.5-1.5-2.4c-0.4-1-0.5-2.1-0.5-3.3
				c0-1,0.2-1.9,0.5-2.8s0.8-1.6,1.4-2.3c0.6-0.6,1.3-1.1,2.2-1.5C140.2,75.5,141.2,75.3,142.2,75.3z M142.3,77.8
				c-1,0-1.8,0.3-2.4,0.9s-0.9,1.4-1.1,2.4h6.5c0-0.4-0.1-0.9-0.2-1.3c-0.1-0.4-0.3-0.7-0.6-1s-0.6-0.5-1-0.7
				C143.3,77.9,142.8,77.8,142.3,77.8z"/>
            <path id="XMLID_318_" d="M158,89.9h-3.1l-5.7-14.4h2.9c0.3,0,0.5,0.1,0.6,0.2c0.2,0.1,0.3,0.3,0.4,0.5l2.8,7.7
				c0.2,0.4,0.3,0.9,0.4,1.3c0.1,0.4,0.2,0.9,0.3,1.3c0.1-0.4,0.2-0.9,0.3-1.3c0.1-0.4,0.2-0.9,0.4-1.3l2.8-7.7
				c0.1-0.2,0.2-0.3,0.4-0.5s0.4-0.2,0.6-0.2h2.7L158,89.9z"/>
            <path id="XMLID_315_" d="M171.2,75.3c0.9,0,1.7,0.1,2.5,0.4c0.8,0.3,1.4,0.7,2,1.3s1,1.2,1.3,2s0.5,1.7,0.5,2.8
				c0,0.3,0,0.5,0,0.7s-0.1,0.3-0.1,0.4c-0.1,0.1-0.1,0.2-0.2,0.2c-0.1,0-0.2,0.1-0.4,0.1h-8.9c0.1,1.5,0.5,2.6,1.2,3.2
				c0.7,0.7,1.6,1,2.7,1c0.6,0,1-0.1,1.4-0.2c0.4-0.1,0.8-0.3,1.1-0.4c0.3-0.2,0.6-0.3,0.8-0.4c0.2-0.1,0.5-0.2,0.7-0.2
				c0.1,0,0.3,0,0.4,0.1c0.1,0.1,0.2,0.1,0.3,0.2l1,1.3c-0.4,0.4-0.8,0.8-1.3,1.1s-1,0.5-1.5,0.7c-0.5,0.2-1,0.3-1.6,0.4
				c-0.5,0.1-1.1,0.1-1.6,0.1c-1,0-1.9-0.2-2.8-0.5c-0.9-0.3-1.6-0.8-2.2-1.5s-1.1-1.5-1.5-2.4c-0.4-1-0.5-2.1-0.5-3.3
				c0-1,0.2-1.9,0.5-2.8s0.8-1.6,1.4-2.3c0.6-0.6,1.3-1.1,2.2-1.5C169.2,75.5,170.1,75.3,171.2,75.3z M171.3,77.8
				c-1,0-1.8,0.3-2.4,0.9s-0.9,1.4-1.1,2.4h6.5c0-0.4-0.1-0.9-0.2-1.3c-0.1-0.4-0.3-0.7-0.6-1s-0.6-0.5-1-0.7
				C172.2,77.9,171.8,77.8,171.3,77.8z"/>
            <path id="XMLID_313_" d="M183.9,69.1v20.8h-3.5V69.1H183.9z"/>
            <path id="XMLID_310_" d="M194,75.3c1.1,0,2,0.2,2.9,0.5c0.9,0.3,1.6,0.8,2.2,1.5c0.6,0.6,1.1,1.4,1.4,2.3
				c0.3,0.9,0.5,1.9,0.5,3.1c0,1.1-0.2,2.2-0.5,3.1c-0.3,0.9-0.8,1.7-1.4,2.3c-0.6,0.6-1.4,1.1-2.2,1.5c-0.9,0.3-1.8,0.5-2.9,0.5
				s-2-0.2-2.9-0.5c-0.9-0.3-1.6-0.8-2.2-1.5c-0.6-0.6-1.1-1.4-1.4-2.3c-0.3-0.9-0.5-1.9-0.5-3.1c0-1.1,0.2-2.2,0.5-3.1
				c0.3-0.9,0.8-1.7,1.4-2.3c0.6-0.6,1.4-1.1,2.2-1.5C191.9,75.5,192.9,75.3,194,75.3z M194,87.5c1.2,0,2.1-0.4,2.7-1.2
				c0.6-0.8,0.9-2,0.9-3.5s-0.3-2.7-0.9-3.5c-0.6-0.8-1.5-1.2-2.7-1.2c-1.2,0-2.1,0.4-2.7,1.2s-0.9,2-0.9,3.5s0.3,2.7,0.9,3.5
				C191.8,87.1,192.7,87.5,194,87.5z"/>
            <path id="XMLID_307_" d="M203.7,94.6V75.6h2.1c0.2,0,0.4,0.1,0.6,0.2c0.2,0.1,0.3,0.3,0.3,0.5l0.3,1.3c0.6-0.7,1.2-1.2,2-1.6
				c0.8-0.4,1.6-0.6,2.6-0.6c0.8,0,1.5,0.2,2.1,0.5c0.6,0.3,1.2,0.8,1.7,1.4c0.5,0.6,0.8,1.4,1.1,2.3c0.3,0.9,0.4,2,0.4,3.1
				c0,1.1-0.1,2.1-0.4,3c-0.3,0.9-0.7,1.7-1.2,2.4c-0.5,0.7-1.2,1.2-1.9,1.6s-1.6,0.6-2.6,0.6c-0.8,0-1.5-0.1-2.1-0.4
				c-0.6-0.2-1.1-0.6-1.5-1v5.9H203.7z M210.5,78c-0.7,0-1.3,0.2-1.8,0.5c-0.5,0.3-1,0.7-1.4,1.3v6.4c0.4,0.5,0.8,0.8,1.3,1
				s1,0.3,1.5,0.3c0.5,0,1-0.1,1.4-0.3s0.8-0.5,1.1-0.9s0.5-0.9,0.7-1.5s0.2-1.3,0.2-2.2c0-0.8-0.1-1.6-0.2-2.1s-0.3-1.1-0.6-1.4
				s-0.6-0.6-0.9-0.8S210.9,78,210.5,78z"/>
            <path id="XMLID_305_" d="M219.6,89.9V75.6h2.1c0.4,0,0.7,0.2,0.9,0.6l0.2,1.1c0.3-0.3,0.5-0.5,0.8-0.8s0.6-0.4,0.9-0.6
				s0.6-0.3,1-0.4c0.4-0.1,0.8-0.1,1.2-0.1c0.9,0,1.6,0.2,2.2,0.7s1,1.1,1.3,2c0.2-0.5,0.5-0.9,0.8-1.2s0.7-0.6,1.1-0.8
				c0.4-0.2,0.8-0.4,1.3-0.5s0.9-0.2,1.4-0.2c0.8,0,1.5,0.1,2.1,0.4c0.6,0.2,1.1,0.6,1.6,1.1c0.4,0.5,0.7,1,1,1.7
				c0.2,0.7,0.3,1.4,0.3,2.3v9.1h-3.5v-9.1c0-0.9-0.2-1.6-0.6-2.1s-1-0.7-1.8-0.7c-0.4,0-0.7,0.1-1,0.2c-0.3,0.1-0.6,0.3-0.8,0.5
				s-0.4,0.5-0.5,0.9c-0.1,0.3-0.2,0.7-0.2,1.2v9.1h-3.5v-9.1c0-1-0.2-1.7-0.6-2.1c-0.4-0.4-1-0.7-1.7-0.7c-0.5,0-1,0.1-1.4,0.4
				c-0.4,0.2-0.8,0.6-1.2,1v10.5H219.6z"/>
            <path id="XMLID_302_" d="M249.1,75.3c0.9,0,1.7,0.1,2.5,0.4c0.8,0.3,1.4,0.7,2,1.3s1,1.2,1.3,2c0.3,0.8,0.5,1.7,0.5,2.8
				c0,0.3,0,0.5,0,0.7s-0.1,0.3-0.1,0.4c-0.1,0.1-0.1,0.2-0.2,0.2s-0.2,0.1-0.4,0.1h-8.9c0.1,1.5,0.5,2.6,1.2,3.2
				c0.7,0.7,1.6,1,2.7,1c0.6,0,1-0.1,1.4-0.2c0.4-0.1,0.8-0.3,1.1-0.4c0.3-0.2,0.6-0.3,0.8-0.4c0.2-0.1,0.5-0.2,0.7-0.2
				c0.1,0,0.3,0,0.4,0.1s0.2,0.1,0.3,0.2l1,1.3c-0.4,0.4-0.8,0.8-1.3,1.1c-0.5,0.3-1,0.5-1.5,0.7c-0.5,0.2-1,0.3-1.6,0.4
				c-0.5,0.1-1.1,0.1-1.6,0.1c-1,0-1.9-0.2-2.8-0.5c-0.9-0.3-1.6-0.8-2.2-1.5s-1.1-1.5-1.5-2.4c-0.4-1-0.5-2.1-0.5-3.3
				c0-1,0.2-1.9,0.5-2.8s0.8-1.6,1.4-2.3c0.6-0.6,1.3-1.1,2.2-1.5C247,75.5,248,75.3,249.1,75.3z M249.2,77.8c-1,0-1.8,0.3-2.4,0.9
				s-0.9,1.4-1.1,2.4h6.5c0-0.4-0.1-0.9-0.2-1.3c-0.1-0.4-0.3-0.7-0.6-1s-0.6-0.5-1-0.7C250.1,77.9,249.7,77.8,249.2,77.8z"/>
            <path id="XMLID_300_" d="M258.1,89.9V75.6h2.1c0.4,0,0.7,0.2,0.9,0.6l0.2,1.1c0.3-0.3,0.6-0.6,0.9-0.8c0.3-0.2,0.7-0.5,1-0.6
				c0.4-0.2,0.7-0.3,1.2-0.4c0.4-0.1,0.9-0.1,1.3-0.1c0.8,0,1.5,0.1,2.1,0.4c0.6,0.3,1.1,0.6,1.5,1.1c0.4,0.5,0.7,1.1,0.9,1.7
				s0.3,1.4,0.3,2.2v9.1h-3.5v-9.1c0-0.9-0.2-1.6-0.6-2c-0.4-0.5-1-0.7-1.8-0.7c-0.6,0-1.2,0.1-1.7,0.4c-0.5,0.3-1,0.6-1.5,1.1v10.4
				H258.1z"/>
            <path id="XMLID_298_" d="M278.8,90.2c-1.2,0-2.2-0.4-2.9-1.1c-0.7-0.7-1-1.7-1-2.9v-8h-1.5c-0.2,0-0.3-0.1-0.5-0.2
				c-0.1-0.1-0.2-0.3-0.2-0.5v-1.4l2.3-0.4l0.7-3.9c0-0.2,0.1-0.3,0.3-0.4c0.1-0.1,0.3-0.2,0.5-0.2h1.8v4.5h3.8v2.5h-3.8v7.8
				c0,0.4,0.1,0.8,0.3,1.1c0.2,0.3,0.5,0.4,0.9,0.4c0.2,0,0.4,0,0.5-0.1s0.3-0.1,0.4-0.2s0.2-0.1,0.3-0.2c0.1-0.1,0.2-0.1,0.3-0.1
				c0.1,0,0.2,0,0.3,0.1c0.1,0.1,0.1,0.1,0.2,0.2l1,1.7c-0.5,0.4-1.1,0.7-1.7,1C280.1,90,279.5,90.2,278.8,90.2z"/>
            <path id="XMLID_296_" d="M298.8,78.4c-0.1,0.1-0.2,0.3-0.3,0.3c-0.1,0.1-0.2,0.1-0.4,0.1c-0.2,0-0.3,0-0.5-0.1
				c-0.2-0.1-0.4-0.2-0.7-0.3c-0.3-0.1-0.5-0.2-0.9-0.3c-0.3-0.1-0.7-0.1-1.1-0.1c-0.7,0-1.2,0.1-1.6,0.4c-0.4,0.3-0.6,0.7-0.6,1.1
				c0,0.3,0.1,0.6,0.3,0.8c0.2,0.2,0.5,0.4,0.8,0.6c0.3,0.2,0.7,0.3,1.1,0.4s0.8,0.3,1.3,0.4c0.4,0.1,0.9,0.3,1.3,0.5
				s0.8,0.4,1.1,0.7s0.6,0.6,0.8,1.1c0.2,0.4,0.3,0.9,0.3,1.5c0,0.7-0.1,1.3-0.4,1.9s-0.6,1.1-1.1,1.5c-0.5,0.4-1.1,0.8-1.8,1
				c-0.7,0.2-1.5,0.4-2.5,0.4c-0.5,0-1,0-1.4-0.1c-0.5-0.1-0.9-0.2-1.4-0.4c-0.4-0.2-0.8-0.3-1.2-0.6c-0.4-0.2-0.7-0.4-1-0.7
				l0.8-1.3c0.1-0.2,0.2-0.3,0.4-0.4c0.1-0.1,0.3-0.1,0.5-0.1c0.2,0,0.4,0.1,0.6,0.2c0.2,0.1,0.4,0.3,0.7,0.4
				c0.3,0.1,0.5,0.3,0.9,0.4s0.8,0.2,1.3,0.2c0.4,0,0.8,0,1.1-0.1s0.5-0.2,0.7-0.4c0.2-0.2,0.3-0.3,0.4-0.6s0.1-0.4,0.1-0.7
				c0-0.3-0.1-0.6-0.3-0.8c-0.2-0.2-0.5-0.4-0.8-0.6c-0.3-0.2-0.7-0.3-1.1-0.4s-0.9-0.3-1.3-0.4c-0.4-0.1-0.9-0.3-1.3-0.5
				c-0.4-0.2-0.8-0.5-1.1-0.8c-0.3-0.3-0.6-0.7-0.8-1.1c-0.2-0.4-0.3-1-0.3-1.6c0-0.6,0.1-1.1,0.3-1.7s0.6-1,1-1.4
				c0.5-0.4,1-0.7,1.7-1c0.7-0.2,1.5-0.4,2.3-0.4c1,0,1.9,0.2,2.7,0.5c0.8,0.3,1.5,0.8,2,1.3L298.8,78.4z"/>
            <path id="XMLID_294_" d="M307.2,90.2c-1.2,0-2.2-0.4-2.9-1.1c-0.7-0.7-1-1.7-1-2.9v-8h-1.5c-0.2,0-0.3-0.1-0.5-0.2
				c-0.1-0.1-0.2-0.3-0.2-0.5v-1.4l2.3-0.4l0.7-3.9c0-0.2,0.1-0.3,0.3-0.4c0.1-0.1,0.3-0.2,0.5-0.2h1.8v4.5h3.8v2.5h-3.8v7.8
				c0,0.4,0.1,0.8,0.3,1.1c0.2,0.3,0.5,0.4,0.9,0.4c0.2,0,0.4,0,0.5-0.1s0.3-0.1,0.4-0.2s0.2-0.1,0.3-0.2c0.1-0.1,0.2-0.1,0.3-0.1
				c0.1,0,0.2,0,0.3,0.1c0.1,0.1,0.1,0.1,0.2,0.2l1,1.7c-0.5,0.4-1.1,0.7-1.7,1C308.6,90,307.9,90.2,307.2,90.2z"/>
            <path id="XMLID_292_" d="M316.5,75.6v9.1c0,0.9,0.2,1.6,0.6,2c0.4,0.5,1,0.7,1.8,0.7c0.6,0,1.2-0.1,1.7-0.4
				c0.5-0.3,1-0.6,1.5-1.1V75.6h3.5v14.4h-2.1c-0.4,0-0.7-0.2-0.9-0.6l-0.2-1.1c-0.3,0.3-0.6,0.6-0.9,0.8c-0.3,0.2-0.7,0.5-1,0.6
				c-0.4,0.2-0.7,0.3-1.2,0.4s-0.9,0.1-1.3,0.1c-0.8,0-1.5-0.1-2.1-0.4c-0.6-0.3-1.1-0.6-1.5-1.1c-0.4-0.5-0.7-1.1-0.9-1.7
				c-0.2-0.7-0.3-1.4-0.3-2.2v-9.1H316.5z"/>
            <path id="XMLID_289_" d="M339.4,89.9c-0.4,0-0.7-0.2-0.9-0.6l-0.3-1.4c-0.3,0.3-0.6,0.6-0.9,0.9c-0.3,0.3-0.7,0.5-1.1,0.7
				c-0.4,0.2-0.8,0.3-1.2,0.5c-0.4,0.1-0.9,0.2-1.4,0.2c-0.8,0-1.5-0.2-2.2-0.5c-0.7-0.3-1.2-0.8-1.7-1.4c-0.5-0.6-0.8-1.4-1.1-2.3
				c-0.3-0.9-0.4-2-0.4-3.1c0-1.1,0.1-2.1,0.4-3c0.3-0.9,0.7-1.7,1.2-2.4c0.5-0.7,1.2-1.2,1.9-1.6s1.6-0.6,2.5-0.6
				c0.8,0,1.5,0.1,2.1,0.4c0.6,0.3,1.1,0.6,1.5,1v-7.6h3.5v20.8H339.4z M334.8,87.4c0.7,0,1.3-0.1,1.8-0.4s1-0.7,1.4-1.3v-6.4
				c-0.4-0.5-0.8-0.8-1.3-1c-0.5-0.2-1-0.3-1.5-0.3c-0.5,0-1,0.1-1.4,0.3c-0.4,0.2-0.8,0.5-1.1,0.9s-0.5,0.9-0.7,1.5
				c-0.2,0.6-0.2,1.3-0.2,2.2c0,0.8,0.1,1.6,0.2,2.1c0.1,0.6,0.3,1.1,0.6,1.4c0.3,0.4,0.6,0.6,0.9,0.8
				C333.9,87.3,334.3,87.4,334.8,87.4z"/>
            <path id="XMLID_286_" d="M349.4,71.4c0,0.3-0.1,0.6-0.2,0.8c-0.1,0.3-0.3,0.5-0.5,0.7c-0.2,0.2-0.4,0.4-0.7,0.5
				c-0.3,0.1-0.6,0.2-0.9,0.2c-0.3,0-0.6-0.1-0.8-0.2c-0.3-0.1-0.5-0.3-0.7-0.5c-0.2-0.2-0.4-0.4-0.5-0.7c-0.1-0.3-0.2-0.5-0.2-0.8
				c0-0.3,0.1-0.6,0.2-0.9c0.1-0.3,0.3-0.5,0.5-0.7c0.2-0.2,0.4-0.4,0.7-0.5c0.3-0.1,0.5-0.2,0.8-0.2c0.3,0,0.6,0.1,0.9,0.2
				c0.3,0.1,0.5,0.3,0.7,0.5c0.2,0.2,0.4,0.4,0.5,0.7C349.4,70.8,349.4,71.1,349.4,71.4z M348.9,75.6v14.4h-3.5V75.6H348.9z"/>
            <path id="XMLID_149_" d="M358.9,75.3c1.1,0,2,0.2,2.9,0.5c0.9,0.3,1.6,0.8,2.2,1.5c0.6,0.6,1.1,1.4,1.4,2.3
				c0.3,0.9,0.5,1.9,0.5,3.1c0,1.1-0.2,2.2-0.5,3.1c-0.3,0.9-0.8,1.7-1.4,2.3c-0.6,0.6-1.4,1.1-2.2,1.5c-0.9,0.3-1.8,0.5-2.9,0.5
				s-2-0.2-2.9-0.5c-0.9-0.3-1.6-0.8-2.2-1.5c-0.6-0.6-1.1-1.4-1.4-2.3c-0.3-0.9-0.5-1.9-0.5-3.1c0-1.1,0.2-2.2,0.5-3.1
				c0.3-0.9,0.8-1.7,1.4-2.3c0.6-0.6,1.4-1.1,2.2-1.5C356.9,75.5,357.9,75.3,358.9,75.3z M358.9,87.5c1.2,0,2.1-0.4,2.7-1.2
				c0.6-0.8,0.9-2,0.9-3.5s-0.3-2.7-0.9-3.5c-0.6-0.8-1.5-1.2-2.7-1.2c-1.2,0-2.1,0.4-2.7,1.2c-0.6,0.8-0.9,2-0.9,3.5
				s0.3,2.7,0.9,3.5C356.8,87.1,357.7,87.5,358.9,87.5z"/>
		</g>
	</g>
        <g id="XMLID_4_" class="st2">
		<g id="XMLID_76_" class="st2">
			<g id="XMLID_284_">
				<g id="XMLID_347_">
					<g id="XMLID_366_">
						<path id="XMLID_367_" d="M69.2,64.3c-0.5,0-1.1,0-1.6,0C62,64,55.2,62.4,48.3,59.7c-12.9-4.9-25.3-13.5-23-19.6
							c1.6-4.1,9.1-5.1,20.2-2.5c0.7,0.2,1.1,0.9,1,1.6c-0.2,0.7-0.9,1.1-1.6,1c-10.2-2.4-16.3-1.4-17.2,0.9
							c-1.3,3.3,7.6,11,21.5,16.3c6.7,2.5,13.2,4.1,18.5,4.3c4.6,0.2,7.8-0.6,8.4-2.2c0.8-2.2-3.1-7.1-12.2-12
							c-0.6-0.3-0.9-1.1-0.5-1.8c0.3-0.6,1.1-0.9,1.8-0.5c9.9,5.4,14.9,11.1,13.3,15.2C77.5,62.9,74.3,64.3,69.2,64.3z"/>
					</g>
                    <g id="XMLID_362_">
						<path id="XMLID_363_" d="M62,53c-0.1,0-0.2,0-0.2,0c-12.9-2.3-18.9-7.5-19.1-7.7c-0.4-0.4-0.5-0.9-0.4-1.4l2.2-5.8
							c1-2.6,3-4.5,5.7-5.5c2.6-1,5.6-1,8.4,0.1c2.8,1.1,5,3,6.3,5.5c1.3,2.6,1.5,5.4,0.6,7.9l-2.3,6.1C63,52.7,62.5,53,62,53z
							 M45.1,43.9c1.8,1.3,7.1,4.6,16.1,6.4l2-5.1c0.7-1.8,0.5-3.9-0.4-5.8c-1-1.9-2.8-3.5-5-4.3c-2.2-0.8-4.5-0.9-6.6-0.1
							c-2,0.8-3.5,2.2-4.2,4L45.1,43.9z"/>
					</g>
                    <g id="XMLID_360_">
						<path id="XMLID_361_" d="M52.2,67.7c-2,0-4.3-0.4-6.4-1.3c-7-2.7-10.7-8.3-8.8-13.4c0.3-0.7,1-1,1.7-0.7c0.7,0.3,1,1,0.7,1.7
							c-1.6,4.2,2.5,8.2,7.3,10.1c2.8,1.1,5.5,1.4,7.8,0.8c1.5-0.3,3.5-1.2,4.4-3.5c0.3-0.7,1-1,1.7-0.7c0.7,0.3,1,1,0.7,1.7
							c-1,2.6-3.2,4.4-6.2,5.1C54.1,67.6,53.2,67.7,52.2,67.7z"/>
					</g>
                    <g id="XMLID_356_">
						<path id="XMLID_357_" d="M33.8,45.4c-0.3,0-0.6,0-0.8-0.2c-1.2-0.5-1.8-1.8-1.4-3c0.2-0.6,0.7-1.1,1.2-1.3
							c0.6-0.3,1.2-0.3,1.8-0.1c0.6,0.2,1.1,0.7,1.3,1.2c0.3,0.6,0.3,1.2,0.1,1.8C35.7,44.8,34.8,45.4,33.8,45.4z M33.8,42.8
							C33.8,42.8,33.8,42.8,33.8,42.8c-0.2,0-0.2,0.1-0.2,0.2c0,0.1,0,0.1,0,0.2c0,0.1,0.1,0.1,0.1,0.1c0.1,0,0.1,0,0.2,0
							c0.1,0,0.1-0.1,0.1-0.1C34.1,43,34.1,42.8,33.8,42.8C33.9,42.8,33.9,42.8,33.8,42.8z"/>
					</g>
                    <g id="XMLID_352_">
						<path id="XMLID_353_" d="M50.7,55.7c-0.3,0-0.6,0-0.8-0.2c-1.2-0.5-1.8-1.8-1.4-3c0.2-0.6,0.7-1.1,1.2-1.3
							c0.6-0.3,1.2-0.3,1.8-0.1c1.2,0.5,1.8,1.8,1.4,3C52.6,55.2,51.7,55.7,50.7,55.7z M50.7,53.2C50.7,53.2,50.7,53.2,50.7,53.2
							c-0.2,0-0.2,0.1-0.2,0.2c0,0.1,0,0.1,0,0.2c0,0.1,0.1,0.1,0.1,0.1c0.1,0,0.1,0,0.2,0c0.1,0,0.1-0.1,0.1-0.1c0-0.1,0-0.1,0-0.2
							C50.9,53.2,50.9,53.2,50.7,53.2C50.8,53.2,50.8,53.2,50.7,53.2z"/>
					</g>
                    <g id="XMLID_348_">
						<path id="XMLID_349_" d="M69.3,58.9c-0.3,0-0.6,0-0.8-0.2c-1.2-0.5-1.8-1.8-1.4-3c0.2-0.6,0.7-1.1,1.2-1.3
							c0.6-0.3,1.2-0.3,1.8-0.1c1.2,0.5,1.8,1.8,1.4,3C71.2,58.3,70.3,58.9,69.3,58.9z M69.3,56.3C69.3,56.3,69.3,56.3,69.3,56.3
							c-0.2,0-0.2,0.1-0.2,0.2c0,0.1,0,0.1,0,0.2c0,0.1,0.1,0.1,0.1,0.1c0.1,0,0.1,0,0.2,0c0.1,0,0.1-0.1,0.1-0.1
							C69.6,56.5,69.5,56.4,69.3,56.3C69.4,56.3,69.4,56.3,69.3,56.3z"/>
					</g>
				</g>
                <g id="XMLID_345_">
					<path id="XMLID_346_" d="M41.6,79.3c-0.1,0-0.3,0-0.4-0.1c-0.7-0.2-1-1-0.8-1.7L45,64.8c0.2-0.7,1-1,1.7-0.8
						c0.7,0.2,1,1,0.8,1.7l-4.6,12.8C42.6,79,42.1,79.3,41.6,79.3z"/>
				</g>
                <g id="XMLID_343_">
					<path id="XMLID_344_" d="M67.5,94.4c-0.5,0-1-0.3-1.2-0.8l-12-26.7c-0.3-0.7,0-1.4,0.7-1.7c0.7-0.3,1.4,0,1.7,0.7l12,26.7
						c0.3,0.7,0,1.4-0.7,1.7C67.9,94.4,67.7,94.4,67.5,94.4z"/>
				</g>
                <g id="XMLID_341_">
					<path id="XMLID_342_" d="M12.5,72.9c-0.5,0-1-0.3-1.2-0.8c-0.3-0.7,0-1.4,0.7-1.7l26.1-11.7c0.7-0.3,1.4,0,1.7,0.7
						c0.3,0.7,0,1.4-0.7,1.7L13.1,72.8C12.9,72.9,12.7,72.9,12.5,72.9z"/>
				</g>
			</g>
		</g>
            <g id="XMLID_60_" >
			<g id="XMLID_86_">
				<g id="XMLID_89_">
					<path id="XMLID_90_" d="M17.1,58.7c-0.7,0-1.3-0.6-1.3-1.3v-6c0-0.7,0.6-1.3,1.3-1.3c0.7,0,1.3,0.6,1.3,1.3v6
						C18.4,58.2,17.8,58.7,17.1,58.7z"/>
				</g>
                <g id="XMLID_87_">
					<path id="XMLID_88_" d="M20.1,55.7h-6c-0.7,0-1.3-0.6-1.3-1.3c0-0.7,0.6-1.3,1.3-1.3h6c0.7,0,1.3,0.6,1.3,1.3
						C21.4,55.2,20.8,55.7,20.1,55.7z"/>
				</g>
			</g>
		</g>
            <g id="XMLID_54_">
			<g id="XMLID_28_">
				<path id="XMLID_29_" d="M41.6,22.4c-0.3,0-0.7-0.1-0.9-0.4c-0.1-0.1-0.2-0.3-0.3-0.4c-0.1-0.2-0.1-0.3-0.1-0.5
					c0-0.3,0.1-0.7,0.4-0.9c0.3-0.3,0.7-0.4,1.2-0.4c0.1,0,0.2,0,0.2,0.1c0.1,0,0.1,0.1,0.2,0.1c0.1,0,0.1,0.1,0.2,0.2
					c0.2,0.2,0.4,0.6,0.4,0.9c0,0.2,0,0.3-0.1,0.5c-0.1,0.2-0.2,0.3-0.3,0.4c-0.1,0.1-0.3,0.2-0.4,0.3
					C41.9,22.4,41.8,22.4,41.6,22.4z"/>
			</g>
		</g>
            <g id="XMLID_42_">
			<g id="XMLID_57_">
				<path id="XMLID_58_" d="M82,52C82,52,82,52,82,52c-0.6,0-1.1-0.4-1.3-1l0-0.1c-0.7-2.8-2.9-5-5.7-5.7c-0.6-0.1-1-0.7-1-1.3
					c0-0.6,0.4-1.1,1-1.3c2.8-0.7,5-2.9,5.7-5.7c0.1-0.6,0.7-1,1.3-1c0,0,0,0,0,0c0.6,0,1.1,0.4,1.3,1c0.7,2.8,2.8,4.9,5.5,5.7
					l0.2,0.1c0.6,0.2,1,0.7,1,1.2c0,0.6-0.4,1.1-0.9,1.3c-2.7,0.8-4.8,2.8-5.7,5.5l-0.1,0.4C83.1,51.7,82.6,52,82,52z M78.6,44.1
					c1.4,0.9,2.6,2,3.4,3.4c0.9-1.4,2-2.5,3.4-3.4c-1.4-0.8-2.6-2-3.4-3.4C81.1,42.1,80,43.2,78.6,44.1z"/>
			</g>
		</g>
            <g id="XMLID_24_">
			<g id="XMLID_81_">
				<g id="XMLID_84_">
					<path id="XMLID_85_" d="M61.5,19.3c-0.7,0-1.3-0.6-1.3-1.3v-6c0-0.7,0.6-1.3,1.3-1.3c0.7,0,1.3,0.6,1.3,1.3v6
						C62.8,18.8,62.3,19.3,61.5,19.3z"/>
				</g>
                <g id="XMLID_82_">
					<path id="XMLID_83_" d="M64.6,16.3h-6c-0.7,0-1.3-0.6-1.3-1.3c0-0.7,0.6-1.3,1.3-1.3h6c0.7,0,1.3,0.6,1.3,1.3
						C65.8,15.8,65.3,16.3,64.6,16.3z"/>
				</g>
			</g>
		</g>
            <g id="XMLID_10_">
			<g id="XMLID_63_">
				<path id="XMLID_64_" d="M50.7,94.4C50.7,94.4,50.7,94.4,50.7,94.4c-0.6,0-1.1-0.4-1.3-1l0,0c-0.4-1.6-1.7-2.9-3.4-3.3
					c-0.6-0.1-1-0.7-1-1.3c0-0.6,0.4-1.1,1-1.3c1.6-0.4,2.9-1.7,3.4-3.3c0.1-0.6,0.7-1,1.3-1c0.6,0,1.1,0.4,1.3,1
					c0.4,1.6,1.6,2.9,3.2,3.3l0.1,0c0.6,0.2,1,0.7,1,1.2c0,0.6-0.4,1.1-0.9,1.3c-1.6,0.4-2.8,1.7-3.3,3.2L52,93.5
					C51.8,94,51.3,94.4,50.7,94.4z M49.4,88.8c0.5,0.4,1,0.9,1.4,1.4c0.4-0.5,0.9-1,1.4-1.4c-0.5-0.4-1-0.9-1.4-1.4
					C50.3,88,49.9,88.4,49.4,88.8z"/>
			</g>
		</g>
            <g id="XMLID_5_">
			<g id="XMLID_30_">
				<path id="XMLID_31_" d="M73.9,78c-0.3,0-0.7-0.1-0.9-0.4s-0.4-0.6-0.4-0.9c0-0.1,0-0.2,0-0.3c0-0.1,0-0.2,0.1-0.2
					c0-0.1,0.1-0.1,0.1-0.2c0-0.1,0.1-0.1,0.2-0.2c0.1-0.1,0.1-0.1,0.2-0.2c0.1-0.1,0.1-0.1,0.2-0.1c0.1,0,0.2-0.1,0.2-0.1
					c0.2,0,0.3,0,0.5,0c0.1,0,0.2,0,0.2,0.1c0.1,0,0.2,0.1,0.2,0.1c0.1,0,0.1,0.1,0.2,0.2c0.1,0.1,0.1,0.1,0.2,0.2
					c0,0.1,0.1,0.1,0.1,0.2c0,0.1,0.1,0.2,0.1,0.2c0,0.1,0,0.2,0,0.3c0,0.3-0.1,0.7-0.4,0.9c-0.1,0.1-0.3,0.2-0.4,0.3
					C74.2,78,74.1,78,73.9,78z"/>
			</g>
		</g>
	</g>
</g>
</svg>
