<?xml version="1.0" encoding="utf-8"?>
<!-- Generator: Adobe Illustrator 19.0.0, SVG Export Plug-In . SVG Version: 6.00 Build 0)  -->
<svg version="1.1" id="Layer_1" xmlns="http://www.w3.org/2000/svg" xmlns:xlink="http://www.w3.org/1999/xlink" x="0px" y="0px"
	 viewBox="588.1 380.7 147.9 77" style="enable-background:new 588.1 380.7 147.9 77;" xml:space="preserve">
<style type="text/css">
	.st0{fill:#8BE4FC;}
	.st1{fill:#48B7EC;}
	.st2{opacity:0.1;enable-background:new    ;}
	.st3{fill:#00648E;}
	.st4{fill:#FFFFFF;}
	.st5{opacity:0.15;enable-background:new    ;}
	.st6{opacity:0.1;}
	.st7{fill:#0B1B5B;}
</style>
<g>
	<path class="st0" d="M662,382.8c31.5,0,57.8,19.5,70,31.9c2.4,2.5,2.4,6.4,0,8.9c-12.3,12.5-38.5,31.9-70,31.9s-57.8-19.5-70-31.9
		c-2.4-2.5-2.4-6.4,0-8.9C604.2,402.3,630.5,382.8,662,382.8z"/>
	<circle class="st1" cx="662" cy="419.2" r="36.3"/>
	<path class="st2" d="M643.2,388.1c-10.5,6.4-17.5,17.9-17.5,31.1c0,20.1,16.3,36.4,36.4,36.4c8.7,0,16.6-3,22.9-8.1
		C629.6,460.8,625.6,407.8,643.2,388.1z"/>
	<circle class="st3" cx="662" cy="419.2" r="17.8"/>
	<circle class="st4" cx="679.5" cy="409.6" r="8.4"/>
	<path class="st5" d="M593.2,413.5c12.2-7.5,39.4-23.2,68.8-23.2c29.3,0,56.6,15.7,68.8,23.2c-12.7-12.5-38.3-30.6-68.8-30.6
		S606,401,593.2,413.5z"/>
	<g class="st6">
		<path d="M684.4,439.5c-0.5,0-1-0.2-1.4-0.5l-2.6-2.1c-0.9-0.8-1.1-2.1-0.3-3.1c0.8-0.9,2.1-1.1,3.1-0.3l2.6,2.1
			c0.9,0.8,1.1,2.1,0.3,3.1C685.6,439.3,685,439.5,684.4,439.5z"/>
		<path d="M689.6,429.7c-0.2,0-0.4,0-0.6-0.1l-3.2-1c-1.1-0.3-1.8-1.6-1.4-2.7c0.3-1.1,1.6-1.8,2.7-1.4l3.2,1
			c1.1,0.3,1.8,1.6,1.4,2.7C691.4,429.1,690.5,429.7,689.6,429.7z"/>
		<path d="M659.3,450.1c-0.1,0-0.1,0-0.2,0c-1.2-0.1-2.1-1.2-2-2.4l0.3-3.3c0.1-1.2,1.2-2.1,2.4-2c1.2,0.1,2.1,1.2,2,2.4l-0.3,3.3
			C661.4,449.2,660.5,450.1,659.3,450.1z"/>
		<path d="M634.1,428.5c-1,0-1.8-0.7-2.1-1.6c-0.3-1.2,0.4-2.3,1.6-2.6l3.2-0.8c1.2-0.3,2.3,0.4,2.6,1.6c0.3,1.2-0.4,2.3-1.6,2.6
			l-3.2,0.8C634.4,428.5,634.2,428.5,634.1,428.5z"/>
		<path d="M648.4,399.7c-0.7,0-1.4-0.4-1.8-1l-1.8-2.8c-0.6-1-0.3-2.4,0.7-3c1-0.6,2.4-0.3,3,0.7l1.8,2.8c0.6,1,0.3,2.4-0.7,3
			C649.2,399.6,648.8,399.7,648.4,399.7z"/>
		<path d="M673.8,398.7c-0.3,0-0.7-0.1-1-0.2c-1.1-0.6-1.5-1.9-0.9-2.9l1.5-2.9c0.6-1.1,1.9-1.5,2.9-0.9c1.1,0.6,1.5,1.9,0.9,2.9
			l-1.5,2.9C675.4,398.3,674.6,398.7,673.8,398.7z"/>
	</g>
	<path class="st7" d="M733.6,413.2c-0.7-0.7-1.5-1.5-2.2-2.2c-0.9-0.8-2.2-0.8-3.1,0.1c-0.8,0.9-0.8,2.2,0.1,3.1
		c0.7,0.7,1.5,1.4,2.2,2.1c1.6,1.6,1.6,4.2,0,5.8c-4.4,4.5-13.8,13.1-27.3,20.2c-5.9,3.2-11.9,5.7-17.9,7.5
		c9.2-7,15.2-18.2,15.2-30.6c0-12.5-5.9-23.5-15.1-30.6c15.7,4.8,28.2,13.2,35.4,19c0.9,0.7,2.3,0.6,3-0.3s0.6-2.3-0.3-3
		c-11.1-8.8-33.8-23.6-61.5-23.6c-14.4,0-28.9,3.9-43.3,11.5c-14,7.5-23.7,16.4-28.3,21c-3.2,3.3-3.2,8.6,0,11.9
		c2.8,2.8,7.4,7.2,13.8,11.8c0.4,0.3,0.8,0.4,1.3,0.4c0.7,0,1.3-0.3,1.7-0.9c0.7-1,0.5-2.3-0.5-3c-6.1-4.5-10.6-8.7-13.2-11.4
		c-1.6-1.6-1.6-4.2,0-5.8c4.4-4.5,13.8-13.1,27.3-20.2c5.9-3.2,11.9-5.7,17.9-7.5c-9.2,7-15.2,18.2-15.2,30.6s5.9,23.5,15.1,30.6
		c-7.9-2.4-15.9-6-23.6-10.7c-1-0.6-2.4-0.3-3,0.7c-0.6,1-0.3,2.4,0.7,3c16,9.8,33,15,49.2,15c14.4,0,28.9-3.9,43.3-11.5
		c14-7.5,23.7-16.4,28.3-21C736.8,421.8,736.8,416.5,733.6,413.2z M627.8,419.2c0-18.8,15.3-34.2,34.2-34.2s34.2,15.3,34.2,34.2
		c0,18.8-15.3,34.2-34.2,34.2S627.8,438,627.8,419.2z M690,409.6c0-5.8-4.7-10.6-10.6-10.6c-2.8,0-5.4,1.1-7.3,2.9
		c-3.1-1.8-6.6-2.8-10.2-2.8c-11,0-20,9-20,20s9,20,20,20c10.8,0,19.6-8.6,20-19.2C686.6,418.8,690,414.6,690,409.6z M662,434.8
		c-8.6,0-15.6-7-15.6-15.6s7-15.6,15.6-15.6c2.7,0,5.4,0.7,7.7,2c-0.5,1.3-0.8,2.6-0.8,4.1c0,5.2,3.8,9.5,8.7,10.4
		C677.2,428.3,670.3,434.8,662,434.8z M679.5,415.9c-3.4,0-6.2-2.8-6.2-6.2s2.8-6.2,6.2-6.2s6.2,2.8,6.2,6.2
		S682.9,415.9,679.5,415.9z"/>
</g>
</svg>
