<?xml version="1.0" encoding="utf-8"?>
<!-- Generator: Adobe Illustrator 19.0.0, SVG Export Plug-In . SVG Version: 6.00 Build 0)  -->
<svg version="1.1" id="Layer_1" xmlns="http://www.w3.org/2000/svg" xmlns:xlink="http://www.w3.org/1999/xlink" x="0px" y="0px"
	 viewBox="0 0 960 560" style="enable-background:new 0 0 960 560;" xml:space="preserve">
<style type="text/css">
	.st0{fill:#8BE4FC;}
</style>
<g>
	<g id="XMLID_164_">
		<path id="XMLID_181_" class="st0" d="M569.9,308.2h-6c-0.9-3.2-2.2-6.2-3.8-9.2l4.3-4.3c0.7-0.7,1.1-1.6,1.1-2.6
			c0-1-0.4-1.9-1.1-2.6l-12.4-12.4c-1.4-1.4-3.7-1.4-5.2,0l-4.3,4.3c-2.9-1.6-6-2.9-9.2-3.8v-6c0-2-1.6-3.6-3.6-3.6h-17.5
			c-2,0-3.6,1.6-3.6,3.6v6c-3.2,0.9-6.3,2.2-9.2,3.8l-4.2-4.2c-0.7-0.7-1.6-1.1-2.6-1.1c-0.3,0-0.6,0-0.9,0.1v-17.1
			c0-2-1.6-3.7-3.6-3.7h-6c-0.9-3.2-2.2-6.2-3.8-9.2l4.3-4.3c1.4-1.4,1.4-3.7,0-5.2l-12.4-12.4c-1.4-1.4-3.7-1.4-5.2,0l-4.3,4.3
			c-2.9-1.6-6-2.9-9.2-3.8v-6c0-2-1.6-3.6-3.6-3.6h-17.5c-2,0-3.6,1.6-3.6,3.6v6c-3.2,0.9-6.3,2.2-9.2,3.8l-4.2-4.2
			c-0.7-0.7-1.6-1.1-2.6-1.1c-1,0-1.9,0.4-2.6,1.1l-12.4,12.4c-1.4,1.4-1.4,3.7,0,5.2l4.2,4.2c-1.6,2.9-2.9,6-3.8,9.2h-6
			c-2,0-3.6,1.6-3.6,3.7v17.5c0,2,1.6,3.6,3.6,3.6h6c0.9,3.2,2.2,6.3,3.8,9.2l-4.3,4.3c-0.7,0.7-1.1,1.6-1.1,2.6
			c0,1,0.4,1.9,1.1,2.6l12.4,12.4c1.4,1.4,3.7,1.4,5.2,0l4.3-4.3c2.9,1.6,6,2.9,9.2,3.8v6c0,2,1.6,3.6,3.6,3.6h17.5
			c2,0,3.6-1.6,3.6-3.6v-6.1c3.2-0.9,6.2-2.2,9.1-3.8l4.3,4.3c0.7,0.7,1.6,1.1,2.6,1.1c0.3,0,0.6,0,0.9-0.1v17.1
			c0,2,1.6,3.7,3.6,3.7h6c0.9,3.2,2.2,6.3,3.8,9.2l-4.3,4.3c-0.7,0.7-1.1,1.6-1.1,2.6c0,1,0.4,1.9,1.1,2.6l12.4,12.4
			c1.4,1.4,3.7,1.4,5.2,0l4.3-4.3c2.9,1.6,6,2.9,9.2,3.8v6c0,2,1.6,3.6,3.6,3.6h17.5c2,0,3.6-1.6,3.6-3.6v-6.1
			c3.2-0.9,6.2-2.2,9.1-3.8l4.3,4.3c1.4,1.4,3.7,1.4,5.2,0l12.4-12.4c0.7-0.7,1.1-1.6,1.1-2.6c0-1-0.4-1.9-1.1-2.6l-4.3-4.3
			c1.6-2.9,2.9-6,3.8-9.1h6.1c2,0,3.7-1.6,3.7-3.7v-17.5C573.5,309.8,571.9,308.2,569.9,308.2z M481.3,300.1
			c-1.3,2.6-2.4,5.3-3.2,8.1h-4.9L481.3,300.1z M478.6,288.6c1.4-2.6,2.5-5.4,3.3-8.3h5L478.6,288.6z M463.8,299.8
			c-1.2-1.2-3.1-1.4-4.6-0.5c-3.7,2.4-7.8,4.1-12.2,5c-1.7,0.4-2.9,1.9-2.9,3.6v5.2H434v-5.2c0-1.7-1.2-3.2-2.9-3.6
			c-4.3-0.9-8.4-2.6-12.2-5c-1.4-0.9-3.3-0.7-4.6,0.5l-3.7,3.7l-7.2-7.2l3.7-3.7c1.2-1.2,1.4-3.1,0.5-4.6c-2.4-3.7-4.1-7.8-5.1-12.2
			c-0.4-1.7-1.9-2.9-3.6-2.9h-5.2v-10.2h5.2c1.7,0,3.2-1.2,3.6-2.9c0.9-4.3,2.6-8.5,5.1-12.2c0.9-1.4,0.7-3.3-0.5-4.6l-3.7-3.7
			l7.2-7.2l3.7,3.7c1.2,1.2,3.1,1.4,4.6,0.5c3.7-2.4,7.9-4.1,12.2-5.1c1.7-0.4,2.9-1.8,2.9-3.6v-5.2h10.2v5.2c0,1.7,1.2,3.2,2.9,3.6
			c4.3,0.9,8.4,2.6,12.2,5.1c1.4,0.9,3.3,0.7,4.6-0.5l3.7-3.7l7.2,7.2l-3.7,3.7c-1.2,1.2-1.4,3.1-0.5,4.6c2.4,3.7,4.1,7.8,5,12.2
			c0.4,1.7,1.8,2.9,3.6,2.9h5.2V273h-5.2c-1.7,0-3.2,1.2-3.6,2.9c-0.9,4.3-2.6,8.4-5,12.2c-0.9,1.4-0.7,3.3,0.5,4.6l3.7,3.7
			l-7.2,7.2L463.8,299.8z M566.2,325.7H561c-1.7,0-3.2,1.2-3.6,2.9c-0.9,4.3-2.6,8.4-5,12.2c-0.9,1.4-0.7,3.3,0.5,4.6l3.7,3.7
			l-7.2,7.2l-3.7-3.7c-1.2-1.2-3.1-1.4-4.6-0.5c-3.7,2.4-7.8,4.1-12.2,5c-1.7,0.4-2.9,1.9-2.9,3.6v5.2h-10.2v-5.2
			c0-1.7-1.2-3.2-2.9-3.6c-4.3-0.9-8.4-2.6-12.2-5c-1.4-0.9-3.3-0.7-4.6,0.5l-3.7,3.7l-7.2-7.2l3.7-3.7c1.2-1.2,1.4-3.1,0.5-4.6
			c-2.4-3.7-4.1-7.8-5.1-12.2c-0.4-1.7-1.9-2.9-3.6-2.9h-5.2v-10.2h5.2c1.7,0,3.2-1.2,3.6-2.9c0.9-4.3,2.6-8.5,5.1-12.2
			c0.9-1.4,0.7-3.3-0.5-4.6l-3.7-3.7l7.2-7.2l3.7,3.7c1.2,1.2,3.1,1.4,4.6,0.5c3.7-2.4,7.9-4.1,12.2-5.1c1.7-0.4,2.9-1.8,2.9-3.6
			v-5.2h10.2v5.2c0,1.7,1.2,3.2,2.9,3.6c4.3,0.9,8.4,2.7,12.2,5.1c1.4,0.9,3.3,0.7,4.6-0.5l3.7-3.7l7.2,7.2l-3.7,3.7
			c-1.2,1.2-1.4,3.1-0.5,4.6c2.4,3.7,4.1,7.8,5,12.2c0.4,1.7,1.8,2.9,3.6,2.9h5.2V325.7z"/>
		<path id="XMLID_180_" class="st0" d="M505.5,308.7c0.9,0,1.9-0.4,2.6-1.1l0,0c1.4-1.4,1.4-3.7,0-5.2c-1.4-1.4-3.7-1.4-5.2,0
			l-0.1,0.1c-1.4,1.4-1.4,3.7,0,5.2C503.6,308.4,504.5,308.7,505.5,308.7z"/>
		<path id="XMLID_179_" class="st0" d="M514.7,295.8c-2,0.5-3.1,2.5-2.7,4.4c0.5,2,2.5,3.1,4.4,2.7c6.3-1.6,12.8,0.2,17.4,4.8
			c7.1,7.1,7.1,18.7,0,25.8c-3.4,3.4-8,5.3-12.9,5.3c-4.9,0-9.5-1.9-12.9-5.3c-4.3-4.3-6.2-10.4-5-16.4c0.4-2-0.9-3.9-2.9-4.3
			c-2-0.4-3.9,0.9-4.3,2.9c-1.6,8.4,1,16.9,7,22.9c4.8,4.8,11.2,7.5,18.1,7.5c6.8,0,13.2-2.7,18.1-7.5c10-10,10-26.2,0-36.1
			C532.7,296.2,523.4,293.6,514.7,295.8z"/>
		<path id="XMLID_176_" class="st0" d="M531.9,320.6c0-6-4.9-10.9-10.9-10.9c-6,0-10.9,4.9-10.9,10.9c0,6,4.9,10.9,10.9,10.9
			C527,331.5,531.9,326.6,531.9,320.6z M517.3,320.6c0-2,1.6-3.6,3.6-3.6s3.6,1.6,3.6,3.6c0,2-1.6,3.7-3.6,3.7
			S517.3,322.6,517.3,320.6z"/>
		<path id="XMLID_175_" class="st0" d="M452.1,255.1c0.7,0.7,1.6,1.1,2.6,1.1c0.9,0,1.9-0.4,2.6-1.1c1.4-1.4,1.4-3.8,0-5.2l0,0
			c-1.4-1.4-3.7-1.4-5.2,0C450.6,251.3,450.6,253.6,452.1,255.1L452.1,255.1z"/>
		<path id="XMLID_174_" class="st0" d="M460.4,261.7c-2,0.2-3.4,2.1-3.2,4.1c0.7,5.6-1.2,11.1-5.2,15.1c-7.1,7.1-18.7,7.1-25.8,0
			c-3.4-3.4-5.3-8-5.3-12.9c0-4.9,1.9-9.5,5.3-12.9c4.1-4.1,10-6,15.8-5.1c2,0.3,3.9-1,4.2-3c0.3-2-1-3.9-3-4.2
			c-8.1-1.3-16.3,1.4-22.1,7.2c-4.8,4.8-7.5,11.2-7.5,18.1c0,6.8,2.7,13.2,7.5,18.1c5,5,11.5,7.5,18.1,7.5c6.5,0,13.1-2.5,18.1-7.5
			c5.6-5.6,8.2-13.3,7.3-21.1C464.2,262.9,462.4,261.5,460.4,261.7z"/>
		<path id="XMLID_171_" class="st0" d="M428.1,267.9c0,6,4.9,10.9,10.9,10.9c6,0,10.9-4.9,10.9-10.9c0-6-4.9-10.9-10.9-10.9
			C433,257,428.1,261.9,428.1,267.9z M442.7,267.9c0,2-1.6,3.6-3.6,3.6s-3.6-1.6-3.6-3.6c0-2,1.6-3.6,3.6-3.6
			S442.7,265.9,442.7,267.9z"/>
		<path id="XMLID_168_" class="st0" d="M569.9,214.3h-7.2c-1.1-2.5-2.4-4.9-4.1-7.1l3.6-6.2c1-1.7,0.4-4-1.3-5l-15.9-9.2
			c-0.8-0.5-1.8-0.6-2.8-0.4c-0.9,0.3-1.7,0.9-2.2,1.7l-3.6,6.2c-2.7-0.3-5.5-0.3-8.2,0l-3.6-6.2c-1-1.7-3.2-2.3-5-1.3l-15.9,9.2
			c-0.8,0.5-1.4,1.3-1.7,2.2c-0.2,0.9-0.1,1.9,0.4,2.8l3.6,6.2c-1.7,2.2-3,4.6-4.1,7.1h-7.2c-2,0-3.6,1.6-3.6,3.7v18.4
			c0,2,1.6,3.7,3.6,3.7h7.2c1.1,2.5,2.4,4.9,4.1,7.1l-3.6,6.2c-0.5,0.8-0.6,1.8-0.4,2.8c0.3,0.9,0.9,1.7,1.7,2.2l15.9,9.2
			c0.6,0.3,1.2,0.5,1.8,0.5c1.3,0,2.5-0.7,3.2-1.8l3.6-6.2c2.7,0.3,5.5,0.3,8.2,0l3.6,6.2c0.5,0.8,1.3,1.5,2.2,1.7
			c0.9,0.3,1.9,0.1,2.8-0.4l15.9-9.2c1.7-1,2.3-3.2,1.3-5l-3.6-6.2c1.7-2.2,3-4.6,4.1-7.1h7.2c2,0,3.6-1.6,3.6-3.7v-18.4
			C573.5,215.9,571.9,214.3,569.9,214.3z M566.2,232.6h-6.1c-1.6,0-3,1-3.5,2.5c-1.1,3.4-2.9,6.4-5.3,9.1c-1.1,1.2-1.2,2.9-0.4,4.3
			l3,5.3l-9.6,5.5l-3-5.3c-0.8-1.4-2.4-2.1-3.9-1.7c-3.4,0.7-7.1,0.7-10.5,0c-1.5-0.3-3.1,0.4-3.9,1.7l-3,5.3l-9.6-5.5l3-5.3
			c0.8-1.4,0.6-3.1-0.4-4.3c-2.4-2.7-4.2-5.7-5.3-9.1c-0.5-1.5-1.9-2.5-3.5-2.5h-6.1v-11.1h6.1c1.6,0,3-1,3.5-2.5
			c1.1-3.4,2.9-6.4,5.3-9.1c1.1-1.2,1.2-2.9,0.4-4.3l-3-5.3l9.6-5.5l3,5.3c0.8,1.4,2.4,2.1,3.9,1.7c3.4-0.7,7.1-0.7,10.5,0
			c1.5,0.3,3.1-0.4,3.9-1.7l3-5.3l9.6,5.5l-3,5.3c-0.8,1.4-0.6,3.1,0.4,4.3c2.4,2.7,4.2,5.7,5.3,9.1c0.5,1.5,1.9,2.5,3.5,2.5h6.1
			V232.6z"/>
		<path id="XMLID_165_" class="st0" d="M532.2,210.3c-9.3,0-16.8,7.6-16.8,16.8c0,9.3,7.6,16.8,16.8,16.8s16.8-7.6,16.8-16.8
			C549.1,217.8,541.5,210.3,532.2,210.3z M532.2,236.6c-5.3,0-9.5-4.3-9.5-9.5c0-5.3,4.3-9.5,9.5-9.5c5.3,0,9.5,4.3,9.5,9.5
			C541.8,232.4,537.5,236.6,532.2,236.6z"/>
	</g>
</g>
</svg>
