<?xml version="1.0" encoding="utf-8"?>
<!-- Generator: Adobe Illustrator 19.0.0, SVG Export Plug-In . SVG Version: 6.00 Build 0)  -->
<svg version="1.1" id="Layer_1" xmlns="http://www.w3.org/2000/svg" xmlns:xlink="http://www.w3.org/1999/xlink" x="0px" y="0px"
	 viewBox="615.9 349.9 91 141.7" style="enable-background:new 615.9 349.9 91 141.7;" xml:space="preserve">
<style type="text/css">
	.st0{fill:#FF7052;}
	.st1{fill:#E65147;}
	.st2{fill:#0B1B5B;}
</style>
<g>
	<path class="st0" d="M704.2,413.3c1.9-2.8-0.1-6.6-3.5-6.6H665l9.7-51.7c0.6-2.7-3-4.2-4.5-1.9l-51.4,75.2
		c-1.9,2.8,0.1,6.6,3.5,6.6H658l-9.7,51.7c-0.6,2.7,3,4.2,4.5,1.9L704.2,413.3z"/>
	<polygon class="st1" points="618.1,430.9 670.5,352.4 673.6,352.4 636.5,434.4 620.3,434.4 	"/>
	<path class="st2" d="M652.2,379.3c-0.9-0.6-2.2-0.4-2.9,0.5c0,0-32.2,47.2-32.3,47.2c-2.8,4.1,0.2,9.9,5.2,9.9h33.2
		c0,0-9.2,49.1-9.2,49.2c-0.5,2.8,1.6,5.5,4.5,5.5c1.5,0,2.9-0.7,3.8-2l15.8-23.1c0.6-0.9,0.4-2.2-0.5-2.9c-0.9-0.6-2.2-0.4-2.9,0.5
		l-15.8,23.1c-0.1,0.1-0.2,0.3-0.5,0.2c-0.3-0.1-0.3-0.4-0.3-0.5c0,0,9.7-51.6,9.7-51.7c0.2-1.3-0.8-2.5-2-2.5c0,0-35.6,0-35.7,0
		c-1.7,0-2.7-2-1.8-3.4l32.3-47.2C653.4,381.3,653.2,380,652.2,379.3z"/>
	<path class="st2" d="M674.1,350.3c-2-0.9-4.3-0.2-5.6,1.6l-14.4,21c-0.6,0.9-0.4,2.2,0.5,2.9c0.9,0.6,2.2,0.4,2.9-0.5l14.4-21
		c0.1-0.1,0.2-0.3,0.5-0.2s0.3,0.4,0.3,0.5l-9.7,51.7c-0.2,1.3,0.8,2.5,2,2.5h35.7c1.7,0,2.7,2,1.8,3.4l-30.9,45.2
		c-0.6,0.9-0.4,2.2,0.5,2.9c0.4,0.2,0.8,0.4,1.2,0.4c0.7,0,1.3-0.3,1.7-0.9l30.9-45.2c2.8-4.1-0.2-9.9-5.2-9.9h-33.2l9.2-49.2
		C677.2,353.3,676.1,351.1,674.1,350.3z"/>
</g>
</svg>
