<?xml version="1.0" encoding="utf-8"?>
<!-- Generator: Adobe Illustrator 19.0.0, SVG Export Plug-In . SVG Version: 6.00 Build 0)  -->
<svg version="1.1" id="Layer_1" xmlns="http://www.w3.org/2000/svg" xmlns:xlink="http://www.w3.org/1999/xlink" x="0px" y="0px"
	 viewBox="0 0 960 560" style="enable-background:new 0 0 960 560;" xml:space="preserve">
<style type="text/css">
	.st0{fill:#FF7052;}
	.st1{fill:#E65147;}
	.st2{fill:#0B1B5B;}
</style>
<g>
	<path class="st0" d="M522.2,272.4c1.9-2.8-0.1-6.6-3.5-6.6h-35.7l9.7-51.7c0.6-2.7-3-4.2-4.5-1.9l-51.4,75.2
		c-1.9,2.8,0.1,6.6,3.5,6.6h35.7l-9.7,51.7c-0.6,2.7,3,4.2,4.5,1.9L522.2,272.4z"/>
	<polygon class="st1" points="436.1,290 488.5,211.5 491.6,211.5 454.5,293.5 438.3,293.5 	"/>
	<path class="st2" d="M470.2,238.4c-0.9-0.6-2.2-0.4-2.9,0.5c0,0-32.2,47.2-32.3,47.2c-2.8,4.1,0.2,9.9,5.2,9.9h33.2
		c0,0-9.2,49.1-9.2,49.2c-0.5,2.8,1.6,5.5,4.5,5.5c1.5,0,2.9-0.7,3.8-2l15.8-23.1c0.6-0.9,0.4-2.2-0.5-2.9c-0.9-0.6-2.2-0.4-2.9,0.5
		l-15.8,23.1c-0.1,0.1-0.2,0.3-0.5,0.2c-0.3-0.1-0.3-0.4-0.3-0.5c0,0,9.7-51.6,9.7-51.7c0.2-1.3-0.8-2.5-2-2.5c0,0-35.6,0-35.7,0
		c-1.7,0-2.7-2-1.8-3.4l32.3-47.2C471.4,240.4,471.2,239.1,470.2,238.4z"/>
	<path class="st2" d="M492.1,209.4c-2-0.9-4.3-0.2-5.6,1.6l-14.4,21c-0.6,0.9-0.4,2.2,0.5,2.9c0.9,0.6,2.2,0.4,2.9-0.5l14.4-21
		c0.1-0.1,0.2-0.3,0.5-0.2c0.3,0.1,0.3,0.4,0.3,0.5c0,0-9.7,51.7-9.7,51.7c-0.2,1.3,0.8,2.5,2,2.5h35.7c1.7,0,2.7,2,1.8,3.4
		l-30.9,45.2c-0.6,0.9-0.4,2.2,0.5,2.9c0.4,0.2,0.8,0.4,1.2,0.4c0.7,0,1.3-0.3,1.7-0.9c0,0,30.9-45.2,30.9-45.2
		c2.8-4.1-0.2-9.9-5.2-9.9h-33.2l9.2-49.2C495.2,212.4,494.1,210.2,492.1,209.4z"/>
</g>
</svg>
